<?xml version="1.0" encoding="UTF-8"?>
<svg version="1.1" xmlns="http://www.w3.org/2000/svg" width="64" height="64">
<path d="M0 0 C21.12 0 42.24 0 64 0 C64 21.12 64 42.24 64 64 C42.88 64 21.76 64 0 64 C0 42.88 0 21.76 0 0 Z " fill="#FDFDFD" transform="translate(0,0)"/>
<path d="M0 0 C0.66 0 1.32 0 2 0 C2 1.32 2 2.64 2 4 C2.99 4 3.98 4 5 4 C5.33 4.99 5.66 5.98 6 7 C6.33 5.68 6.66 4.36 7 3 C8.32 3.33 9.64 3.66 11 4 C11.32494469 8.65754061 10.90547505 11.29301459 8 15 C4.12011628 18.40959478 0.32658844 18.45451194 -4.62890625 18.28515625 C-8.97229535 17.76280468 -11.06698459 16.02330722 -13.9375 12.875 C-15.51110078 8.61702143 -14.28417766 5.24055789 -13 1 C-12.01 1.33 -11.02 1.66 -10 2 C-9.3125 4.0625 -9.3125 4.0625 -9 6 C-8.34 4.35 -7.68 2.7 -7 1 C-6.67 1 -6.34 1 -6 1 C-5.67 1.99 -5.34 2.98 -5 4 C-3.35 3.67 -1.7 3.34 0 3 C0 2.01 0 1.02 0 0 Z " fill="#E4E4E4" transform="translate(34,27)"/>
<path d="M0 0 C0.99 0.33 1.98 0.66 3 1 C3.6875 3.0625 3.6875 3.0625 4 5 C4.66 3.35 5.32 1.7 6 0 C6.33 0 6.66 0 7 0 C7.33 0.99 7.66 1.98 8 3 C9.32 2.67 10.64 2.34 12 2 C12 3.98 12 5.96 12 8 C8.7 8.33 5.4 8.66 2 9 C2 7.68 2 6.36 2 5 C1.34 5 0.68 5 0 5 C0 5.99 0 6.98 0 8 C-0.66 8 -1.32 8 -2 8 C-1.34 5.36 -0.68 2.72 0 0 Z " fill="#959595" transform="translate(21,28)"/>
<path d="M0 0 C0.33 0.99 0.66 1.98 1 3 C1.99 3 2.98 3 4 3 C4.33 3.99 4.66 4.98 5 6 C5.33 4.68 5.66 3.36 6 2 C7.32 2.33 8.64 2.66 10 3 C10 4.65 10 6.3 10 8 C7.69 8 5.38 8 3 8 C3 6.68 3 5.36 3 4 C2.34 4 1.68 4 1 4 C0.67 5.32 0.34 6.64 0 8 C0 5.36 0 2.72 0 0 Z " fill="#6A6A6A" transform="translate(35,28)"/>
<path d="M0 0 C0.66 0.33 1.32 0.66 2 1 C2 2.32 2 3.64 2 5 C2.66 5 3.32 5 4 5 C4 6.32 4 7.64 4 9 C4.66 9.33 5.32 9.66 6 10 C4.02 10 2.04 10 0 10 C-0.12375 9.360625 -0.2475 8.72125 -0.375 8.0625 C-0.684375 7.0415625 -0.684375 7.0415625 -1 6 C-1.66 5.67 -2.32 5.34 -3 5 C-2.34 5 -1.68 5 -1 5 C-0.67 3.35 -0.34 1.7 0 0 Z " fill="#D3D3D3" transform="translate(34,27)"/>
<path d="M0 0 C0.99 0.33 1.98 0.66 3 1 C3.33 3.31 3.66 5.62 4 8 C3.34 8 2.68 8 2 8 C2 7.01 2 6.02 2 5 C1.34 5 0.68 5 0 5 C0 5.99 0 6.98 0 8 C-0.66 8 -1.32 8 -2 8 C-1.34 5.36 -0.68 2.72 0 0 Z " fill="#767676" transform="translate(21,28)"/>
</svg>
